<mxfile host="app.diagrams.net" modified="2024-01-20T05:50:41.093Z" agent="Mozilla/5.0 (X11; Linux x86_64) AppleWebKit/537.36 (KHTML, like Gecko) Chrome/120.0.0.0 Safari/537.36" etag="nZ327SoltbUxqTfD4nJj" version="22.1.21" type="github">
  <diagram name="Page-1" id="74e2e168-ea6b-b213-b513-2b3c1d86103e">
    <mxGraphModel dx="1906" dy="447" grid="1" gridSize="10" guides="1" tooltips="1" connect="1" arrows="1" fold="1" page="1" pageScale="1" pageWidth="1100" pageHeight="850" background="none" math="0" shadow="0">
      <root>
        <mxCell id="0" />
        <mxCell id="1" parent="0" />
        <mxCell id="cuu4rHcT1OCNB9AZCzTh-9" style="edgeStyle=orthogonalEdgeStyle;rounded=0;orthogonalLoop=1;jettySize=auto;html=1;" edge="1" parent="1" source="cuu4rHcT1OCNB9AZCzTh-7" target="cuu4rHcT1OCNB9AZCzTh-8">
          <mxGeometry relative="1" as="geometry" />
        </mxCell>
        <mxCell id="cuu4rHcT1OCNB9AZCzTh-12" value="Send Common View Data" style="edgeLabel;html=1;align=center;verticalAlign=middle;resizable=0;points=[];" vertex="1" connectable="0" parent="cuu4rHcT1OCNB9AZCzTh-9">
          <mxGeometry x="-0.4175" y="3" relative="1" as="geometry">
            <mxPoint x="105" y="51" as="offset" />
          </mxGeometry>
        </mxCell>
        <mxCell id="cuu4rHcT1OCNB9AZCzTh-7" value="npli-tnf-util-python (Ref)" style="outlineConnect=0;dashed=0;verticalLabelPosition=bottom;verticalAlign=top;align=center;html=1;shape=mxgraph.aws3.android;fillColor=#FFD44F;gradientColor=none;" vertex="1" parent="1">
          <mxGeometry x="80" y="90" width="73.5" height="84" as="geometry" />
        </mxCell>
        <mxCell id="cuu4rHcT1OCNB9AZCzTh-8" value="" style="shape=image;html=1;verticalAlign=top;verticalLabelPosition=bottom;labelBackgroundColor=#ffffff;imageAspect=0;aspect=fixed;image=https://cdn2.iconfinder.com/data/icons/boxicons-logos/24/bxl-spring-boot-128.png" vertex="1" parent="1">
          <mxGeometry x="430" y="140" width="128" height="128" as="geometry" />
        </mxCell>
        <mxCell id="cuu4rHcT1OCNB9AZCzTh-11" style="edgeStyle=orthogonalEdgeStyle;rounded=0;orthogonalLoop=1;jettySize=auto;html=1;entryX=0;entryY=0.5;entryDx=0;entryDy=0;" edge="1" parent="1" source="cuu4rHcT1OCNB9AZCzTh-10" target="cuu4rHcT1OCNB9AZCzTh-8">
          <mxGeometry relative="1" as="geometry" />
        </mxCell>
        <mxCell id="cuu4rHcT1OCNB9AZCzTh-10" value="npli-tnf-util-python (client)" style="outlineConnect=0;dashed=0;verticalLabelPosition=bottom;verticalAlign=top;align=center;html=1;shape=mxgraph.aws3.android;fillColor=#FFD44F;gradientColor=none;" vertex="1" parent="1">
          <mxGeometry x="80" y="268" width="73.5" height="84" as="geometry" />
        </mxCell>
        <mxCell id="cuu4rHcT1OCNB9AZCzTh-13" value="npl-clock-controller-service (Client)" style="outlineConnect=0;dashed=0;verticalLabelPosition=bottom;verticalAlign=top;align=center;html=1;shape=mxgraph.aws3.android;fillColor=#FFD44F;gradientColor=none;" vertex="1" parent="1">
          <mxGeometry x="-120" y="268" width="73.5" height="84" as="geometry" />
        </mxCell>
      </root>
    </mxGraphModel>
  </diagram>
</mxfile>
